<?xml version="1.0" encoding="UTF-8" standalone="no"?>
<!-- Created with Inkscape (http://www.inkscape.org/) -->

<svg
   xmlns:dc="http://purl.org/dc/elements/1.1/"
   xmlns:cc="http://creativecommons.org/ns#"
   xmlns:rdf="http://www.w3.org/1999/02/22-rdf-syntax-ns#"
   xmlns:svg="http://www.w3.org/2000/svg"
   xmlns="http://www.w3.org/2000/svg"
   xmlns:sodipodi="http://sodipodi.sourceforge.net/DTD/sodipodi-0.dtd"
   xmlns:inkscape="http://www.inkscape.org/namespaces/inkscape"
   version="1.1"
   id="svg20"
   width="1200"
   height="752"
   viewBox="0 0 1200 752"
   sodipodi:docname="Logo-SOLUÇÃORec.svg"
   inkscape:version="0.92.3 (2405546, 2018-03-11)">
  <metadata
     id="metadata26">
    <rdf:RDF>
      <cc:Work
         rdf:about="">
        <dc:format>image/svg+xml</dc:format>
        <dc:type
           rdf:resource="http://purl.org/dc/dcmitype/StillImage" />
        <dc:title></dc:title>
      </cc:Work>
    </rdf:RDF>
  </metadata>
  <defs
     id="defs24" />
  <sodipodi:namedview
     pagecolor="#ffffff"
     bordercolor="#666666"
     borderopacity="1"
     objecttolerance="10"
     gridtolerance="10"
     guidetolerance="10"
     inkscape:pageopacity="0"
     inkscape:pageshadow="2"
     inkscape:window-width="1366"
     inkscape:window-height="745"
     id="namedview22"
     showgrid="false"
     inkscape:zoom="0.62765957"
     inkscape:cx="590.94102"
     inkscape:cy="402.69045"
     inkscape:window-x="-8"
     inkscape:window-y="-8"
     inkscape:window-maximized="1"
     inkscape:current-layer="g30" />
  <g
     id="g30"
     transform="translate(9.5593153,25.491526)">
    <text
       xml:space="preserve"
       style="font-style:normal;font-variant:normal;font-weight:normal;font-stretch:normal;font-size:40px;line-height:1.25;font-family:'Zapf Calligraphic 801 SWA';-inkscape-font-specification:'Zapf Calligraphic 801 SWA';letter-spacing:0px;word-spacing:0px;fill:#000000;fill-opacity:1;stroke:none;"
       x="210.3051"
       y="191.18643"
       id="text865"><tspan
         sodipodi:role="line"
         id="tspan863"
         x="210.3051"
         y="224.8504"></tspan></text>
    <g
       aria-label="S"
       style="font-style:normal;font-variant:normal;font-weight:normal;font-stretch:normal;font-size:415.33096313px;line-height:1.25;font-family:'Zapf Calligraphic 801 SWA';-inkscape-font-specification:'Zapf Calligraphic 801 SWA';letter-spacing:0px;word-spacing:0px;fill:#aa0c0c;fill-opacity:1;stroke:none;stroke-width:10.38327503"
       id="text869">
      <path
         d="m 271.82889,77.908811 q -2.43358,17.440656 -3.85317,31.839339 -1.21679,14.39868 -1.41959,26.97217 l -13.79029,0.2028 v -4.66436 q 0,-28.39176 -13.38468,-41.168058 -13.38469,-12.776294 -42.58765,-12.776294 -26.56658,0 -42.99325,16.223866 -16.42666,16.021066 -16.42666,41.776456 0,23.7274 12.97909,35.4897 13.18189,11.55951 61.2451,20.68543 44.41283,8.11194 60.4339,23.11901 16.02106,14.80428 16.02106,43.80444 0,44.41283 -34.07012,74.22419 -33.86732,29.60855 -85.58089,29.60855 -15.61547,0 -31.23094,-3.65037 -15.41267,-3.65037 -31.43374,-10.95111 1.62239,-15.00707 2.43358,-31.23094 1.01399,-16.22387 1.01399,-34.47572 l 13.18189,0.4056 v 5.47556 q 0,28.39176 15.00708,40.35686 15.20987,11.9651 50.29398,11.9651 31.02815,0 48.6716,-16.62946 17.64345,-16.83226 17.64345,-46.03522 0,-24.133 -12.57349,-35.6925 -12.3707,-11.55951 -56.78353,-19.06305 -47.45481,-8.51752 -64.89546,-24.33579 -17.23786,-16.02107 -17.23786,-47.25201 0,-39.54568 27.58057,-65.098264 27.58057,-25.755387 69.96542,-25.755387 19.26584,0 36.9093,4.055966 17.84625,4.055967 34.88131,12.573496 z"
         style="fill:#aa0c0c;fill-opacity:1;stroke-width:10.38327503"
         id="path883" />
    </g>
    <g
       aria-label="olução"
       style="font-style:normal;font-variant:normal;font-weight:normal;font-stretch:normal;font-size:258.56848145px;line-height:1.25;font-family:'Zapf Calligraphic 801 SWA';-inkscape-font-specification:'Zapf Calligraphic 801 SWA';letter-spacing:0px;word-spacing:0px;fill:#000000;fill-opacity:1;stroke:none;stroke-width:6.46421194"
       id="text873">
      <path
         d="m 381.48551,229.17722 q -17.92809,0 -27.52341,11.99414 -9.46906,11.86789 -9.46906,34.21487 0,29.03845 10.85786,46.08276 10.85786,17.04431 29.29096,17.04431 17.17056,0 26.13461,-12.1204 8.96404,-12.12039 8.96404,-35.72992 0,-28.40718 -10.35284,-44.94647 -10.35284,-16.53929 -27.90216,-16.53929 z m -60.47574,55.29931 q 0,-29.16471 17.29682,-46.46152 17.29682,-17.42308 46.58778,-17.42308 26.76588,0 42.54765,16.28679 15.78176,16.16053 15.78176,43.68393 0,29.79598 -17.92809,48.48159 -17.92808,18.55936 -46.08276,18.55936 -27.14464,0 -42.6739,-16.91805 -15.52926,-16.91806 -15.52926,-46.20902 z"
         style="stroke-width:6.46421194"
         id="path886" />
      <path
         d="m 499.91189,155.4448 3.78762,1.51505 q -0.37876,5.68143 -0.63127,14.64548 -0.12625,8.83779 -0.12625,20.83193 v 124.36033 q 0,13.63545 3.2826,16.53929 3.40887,2.90385 18.1806,3.15636 v 7.44899 q -7.82776,-0.37876 -16.16053,-0.50502 -8.33277,-0.2525 -17.17056,-0.2525 -14.01421,0 -20.83194,0.2525 -6.81772,0.12626 -12.49916,0.50502 v -7.44899 q 14.39298,-0.37877 18.05435,-2.7776 3.66137,-2.52508 3.66137,-13.00417 V 194.45733 q 0,-16.16053 -2.90385,-18.93812 -2.77759,-2.7776 -15.1505,-2.7776 -0.12625,0 -1.38879,-0.12625 -1.26254,-0.12625 -2.27258,-0.12625 v -7.449 q 13.25669,-2.02006 23.73578,-4.41889 10.4791,-2.39883 18.43311,-5.17642 z"
         style="stroke-width:6.46421194"
         id="path888" />
      <path
         d="m 654.44695,221.09695 3.15636,1.26254 q 0,0.88378 -0.12626,3.15636 -0.88378,17.0443 -0.88378,32.32106 v 59.21319 1.01003 q 0,12.87792 3.0301,15.40301 3.15636,2.52508 17.17057,3.0301 l -0.12626,7.44899 q -4.16638,-0.37876 -8.96404,-0.50502 -4.6714,-0.2525 -13.25669,-0.2525 -3.91387,0 -8.96404,0.2525 -4.92391,0.12626 -10.85786,0.50502 v -21.2107 l -15.78176,13.76171 q -6.31271,5.55518 -13.88796,8.08026 -7.44899,2.52508 -18.1806,2.52508 -17.67558,0 -25.88209,-8.58528 -8.20652,-8.58528 -8.20652,-27.14464 v -55.29931 q 0,-12.24665 -2.90385,-14.64548 -2.77759,-2.39883 -16.28678,-3.0301 v -6.69147 q 10.60534,-1.26254 20.70568,-3.91388 10.10033,-2.65134 19.31688,-6.69147 l 3.40886,1.89381 q -0.75752,8.58528 -1.13629,17.04431 -0.37876,8.33278 -0.37876,17.04431 v 44.94648 q 0,16.03427 5.42893,22.47323 5.55518,6.31271 18.30685,6.31271 14.01421,0 24.4933,-8.71154 10.4791,-8.71153 10.4791,-19.56939 v -3.78762 -46.84029 q 0,-8.83779 -2.65134,-10.98411 -2.52508,-2.27257 -15.52926,-2.27257 h -3.78762 v -7.19649 q 14.39297,-1.51505 24.87206,-4.04013 10.60535,-2.65134 17.42307,-6.31271 z"
         style="stroke-width:6.46421194"
         id="path890" />
      <path
         d="m 789.03386,260.74075 h -6.43896 l -1.01003,-7.32274 q 0,-0.12625 0,-0.63127 -0.88378,-8.71154 -3.66137,-10.98411 -4.29265,-3.66137 -11.99415,-5.93394 -7.57525,-2.27258 -15.90802,-2.27258 -17.04431,0 -26.00835,10.60535 -8.83779,10.47909 -8.83779,30.67975 0,27.01839 12.49916,42.92641 12.62541,15.78177 33.70985,15.78177 6.94398,0 14.39298,-1.89381 7.57524,-1.89381 15.15049,-5.55518 l 2.27258,1.76755 -5.68144,10.35284 q -8.20652,4.4189 -17.54933,6.56522 -9.21655,2.27257 -19.69564,2.27257 h -3.28261 v 10.98411 q 3.0301,-0.37876 5.05017,-0.50501 2.14632,-0.12626 3.66137,-0.25251 9.97407,0 15.90802,5.68144 6.0602,5.68143 6.0602,15.02424 0,10.35284 -7.32274,16.16053 -7.19649,5.80769 -20.32692,5.80769 -6.56521,0 -13.13043,-1.26254 -6.43896,-1.26254 -13.25669,-3.91388 l -1.51504,-9.46906 q 6.56521,2.52508 12.24665,3.66137 5.68143,1.26254 10.98411,1.26254 7.82775,0 11.61538,-3.0301 3.91388,-2.90384 3.91388,-8.96404 0,-5.17642 -3.78763,-8.33278 -3.66137,-3.0301 -10.10033,-3.0301 -1.13629,0 -3.15635,0.12626 -1.89381,0.25251 -4.92391,0.63127 V 346.2148 q -21.96822,-2.90384 -33.96237,-18.18059 -11.99414,-15.40301 -11.99414,-40.78009 0,-16.7918 4.92391,-29.16471 4.92391,-12.3729 14.14046,-18.81186 14.39298,-9.97408 25.75585,-14.26672 11.48913,-4.4189 23.35701,-4.4189 8.83779,0 16.66555,1.76756 7.95401,1.76756 14.89799,5.30268 -1.13629,6.81772 -2.02007,14.77173 -0.88378,7.95401 -1.6413,18.30685 z"
         style="stroke-width:6.46421194"
         id="path892" />
      <path
         d="m 882.84072,276.14376 q -30.17474,4.04013 -42.04263,11.61538 -11.74163,7.44899 -11.74163,22.09447 0,10.22659 5.42892,15.78177 5.42893,5.42893 15.78177,5.42893 8.58528,0 16.16053,-4.67141 7.57525,-4.6714 16.41304,-15.52925 z m 21.2107,-10.60535 v 48.98661 4.54514 q 0,11.86789 2.14632,14.26672 2.27257,2.39883 15.15049,2.90385 l -0.12625,7.7015 q -4.6714,-0.37876 -9.59532,-0.50502 -4.79765,-0.2525 -9.72156,-0.2525 -3.78763,0 -8.58529,0.2525 -4.79765,0.12626 -9.97407,0.50502 v -21.4632 l -23.60953,17.29681 q -4.41889,3.28261 -10.35284,5.17642 -5.93394,1.89382 -11.86789,1.89382 -13.88795,0 -21.71571,-8.45903 -7.7015,-8.45903 -7.7015,-23.60953 0,-20.83193 17.04431,-31.43728 17.17056,-10.7316 57.69814,-14.89799 v -3.91387 q 0,-14.77174 -8.45903,-22.5995 -8.33277,-7.82775 -24.11454,-7.82775 -11.99414,0 -17.54932,4.6714 -5.55519,4.6714 -7.82776,17.29682 l -7.19649,-1.64131 0.75753,-17.29681 0.75752,-0.37877 q 25.62959,-16.16053 41.66387,-16.16053 22.852,0 32.95233,10.35284 10.22659,10.35284 10.22659,34.59364 z m -6.43896,-96.96318 q -2.52509,13.38294 -8.58529,19.94815 -6.0602,6.43896 -16.03427,6.43896 -1.89381,0 -4.16639,-0.2525 -2.27257,-0.37877 -5.17642,-1.01004 l -13.50919,-3.66137 q -2.52508,-0.63127 -3.78763,-0.75752 -1.26254,-0.25251 -2.27257,-0.25251 -4.79766,0 -7.7015,2.52508 -2.77759,2.39883 -5.30268,8.83779 h -5.93394 q 2.39883,-13.00418 8.58528,-19.69564 6.31271,-6.69147 16.53929,-6.69147 2.39883,0 4.29264,0.2525 1.89382,0.25251 3.66137,0.88378 l 14.01421,3.53512 q 3.53512,0.88378 4.92391,1.13629 1.3888,0.2525 2.27258,0.2525 4.16639,0 6.69147,-2.27257 2.52508,-2.39883 5.55518,-9.21655 z"
         style="stroke-width:6.46421194"
         id="path894" />
      <path
         d="m 998.11075,229.17722 q -17.92809,0 -27.5234,11.99414 -9.46906,11.86789 -9.46906,34.21487 0,29.03845 10.85785,46.08276 10.85786,17.04431 29.29096,17.04431 17.1706,0 26.1346,-12.1204 8.9641,-12.12039 8.9641,-35.72992 0,-28.40718 -10.3529,-44.94647 -10.3528,-16.53929 -27.90215,-16.53929 z m -60.47573,55.29931 q 0,-29.16471 17.29682,-46.46152 17.29681,-17.42308 46.58776,-17.42308 26.7659,0 42.5477,16.28679 15.7817,16.16053 15.7817,43.68393 0,29.79598 -17.9281,48.48159 -17.928,18.55936 -46.08272,18.55936 -27.14464,0 -42.6739,-16.91805 -15.52926,-16.91806 -15.52926,-46.20902 z"
         style="stroke-width:6.46421194"
         id="path896" />
    </g>
    <path
       style="opacity:1;fill:#030000;fill-opacity:1;fill-rule:nonzero;stroke:none;stroke-width:23.94586945;stroke-linecap:round;stroke-linejoin:round;stroke-miterlimit:4;stroke-dasharray:none;stroke-opacity:1;paint-order:markers fill stroke"
       d="M 93.070335,413.16098 H 1081.3033 v 13.70147 H 93.070335 Z"
       id="rect875" />
    <g
       aria-label="Assessoria de Vendas
e Cobrança"
       style="font-style:normal;font-variant:normal;font-weight:normal;font-stretch:normal;font-size:103.15648651px;line-height:1.25;font-family:'Zapf Calligraphic 801 SWA';-inkscape-font-specification:'Zapf Calligraphic 801 SWA';letter-spacing:0px;word-spacing:0px;fill:#000000;fill-opacity:1;stroke:none;stroke-width:2.57891202"
       id="text879">
      <path
         d="m 103.94015,510.52313 v -3.17327 h 0.20147 q 4.88583,0 9.46945,-11.13163 0.55406,-1.3096 0.85628,-2.01478 l 23.52249,-56.61518 q 0.15111,-0.30221 0.5037,-0.45332 0.35258,-0.15111 0.95702,-0.15111 0.55406,0 0.90665,0.15111 0.40295,0.15111 0.55406,0.50369 l 24.73136,61.24917 q 0,0 0,0.0504 3.42512,8.26057 9.06649,8.41168 v 3.17327 q -3.92881,-0.20148 -7.20282,-0.30221 -3.27401,-0.10074 -5.18805,-0.10074 -3.72733,0 -6.95097,0.10074 -3.22364,0.10073 -6.2458,0.30221 v -3.17327 q 5.0873,-0.20148 6.54802,-0.75554 1.51108,-0.55406 1.51108,-1.9644 0,-0.75555 -0.30222,-2.01478 -0.30221,-1.25923 -0.85628,-2.71995 l -6.69913,-18.13297 h -24.42914 l -6.69913,17.52854 q -0.80591,1.91404 -1.10813,3.07253 -0.25184,1.1585 -0.25184,2.16589 0,1.46071 1.51108,2.06514 1.51108,0.55406 6.2458,0.75554 v 3.17327 q -2.77032,-0.20148 -5.38952,-0.30221 -2.61921,-0.10074 -5.13768,-0.10074 -3.82807,0 -5.99396,0.10074 -2.11551,0.10073 -4.13028,0.30221 z m 22.71658,-33.44526 h 20.70182 l -10.27535,-25.9906 z"
         style="text-align:center;text-anchor:middle;stroke-width:2.57891202"
         id="path899" />
      <path
         d="m 215.91127,463.78035 q -0.40295,2.87105 -0.55406,4.73472 -0.15111,1.86367 -0.15111,3.32438 0,1.10813 0.15111,3.42512 0,0.30221 0.0504,0.50369 h -2.16588 v -1.15849 q 0,-4.53325 -3.32438,-7.05172 -3.32438,-2.51847 -9.16723,-2.51847 -4.38214,0 -7.15245,2.16589 -2.77032,2.11551 -2.77032,5.43989 0,3.32438 2.31699,5.18805 2.31699,1.86366 8.96575,3.37474 11.28274,2.51847 14.45601,5.23842 3.17327,2.66958 3.17327,7.75688 0,7.75689 -5.69173,12.69309 -5.69174,4.88583 -14.85897,4.88583 -3.97918,0 -7.75689,-0.5037 -3.7777,-0.50369 -7.60577,-1.46071 0.55406,-1.91404 0.90665,-5.23841 0.35258,-3.37475 0.35258,-7.35393 v -1.86367 h 2.41773 q 0,0.35259 -0.0504,0.80591 0,0.45332 0,1.35997 0,5.33916 3.32438,8.00873 3.37475,2.61921 10.17462,2.61921 5.0873,0 8.31094,-2.61921 3.22364,-2.66957 3.22364,-6.64875 0,-3.37475 -2.4681,-5.28879 -2.41773,-1.91404 -11.73606,-4.13029 -7.50504,-1.71256 -10.72868,-4.73472 -3.22364,-3.02216 -3.22364,-8.26058 0,-6.79986 4.9362,-10.87978 4.98657,-4.07992 13.44863,-4.07992 3.62659,0 6.9006,0.60443 3.32438,0.55406 6.29617,1.66219 z"
         style="text-align:center;text-anchor:middle;stroke-width:2.57891202"
         id="path901" />
      <path
         d="m 259.63189,463.78035 q -0.40295,2.87105 -0.55406,4.73472 -0.15111,1.86367 -0.15111,3.32438 0,1.10813 0.15111,3.42512 0,0.30221 0.0504,0.50369 h -2.16589 v -1.15849 q 0,-4.53325 -3.32437,-7.05172 -3.32438,-2.51847 -9.16723,-2.51847 -4.38214,0 -7.15245,2.16589 -2.77032,2.11551 -2.77032,5.43989 0,3.32438 2.31699,5.18805 2.31699,1.86366 8.96575,3.37474 11.28274,2.51847 14.45601,5.23842 3.17327,2.66958 3.17327,7.75688 0,7.75689 -5.69174,12.69309 -5.69174,4.88583 -14.85896,4.88583 -3.97918,0 -7.75689,-0.5037 -3.7777,-0.50369 -7.60577,-1.46071 0.55406,-1.91404 0.90665,-5.23841 0.35258,-3.37475 0.35258,-7.35393 v -1.86367 h 2.41773 q 0,0.35259 -0.0504,0.80591 0,0.45332 0,1.35997 0,5.33916 3.32438,8.00873 3.37475,2.61921 10.17462,2.61921 5.0873,0 8.31094,-2.61921 3.22364,-2.66957 3.22364,-6.64875 0,-3.37475 -2.4681,-5.28879 -2.41773,-1.91404 -11.73606,-4.13029 -7.50504,-1.71256 -10.72868,-4.73472 -3.22364,-3.02216 -3.22364,-8.26058 0,-6.79986 4.9362,-10.87978 4.98657,-4.07992 13.44862,-4.07992 3.6266,0 6.90061,0.60443 3.32438,0.55406 6.29617,1.66219 z"
         style="text-align:center;text-anchor:middle;stroke-width:2.57891202"
         id="path903" />
      <path
         d="m 298.71853,485.7414 h -18.48556 v 0.35258 q 0,9.62056 4.58361,14.95971 4.58361,5.33915 12.84419,5.33915 3.67697,0 6.90061,-1.05775 3.27401,-1.10813 5.89321,-3.17327 l 1.00739,0.60443 q -0.45332,0.6548 -0.90665,1.56145 -0.40295,0.90665 -0.80591,2.06514 -3.42512,2.77032 -7.50504,4.13029 -4.02955,1.35998 -8.81464,1.35998 -11.03089,0 -16.87374,-6.29618 -5.79248,-6.34654 -5.79248,-18.28408 0,-6.39691 1.71256,-11.23237 1.76293,-4.88583 5.08731,-7.75689 4.07992,-3.47548 8.21021,-5.23841 4.18066,-1.76293 8.21021,-1.76293 8.36131,0 13.59973,5.18805 5.23841,5.18804 5.23841,13.29751 0,2.16588 -4.02955,4.07992 -3.97918,1.86367 -10.07387,1.86367 z m 4.73472,-3.82807 v -3.17328 q 0,-6.79986 -2.87106,-10.32572 -2.82068,-3.57622 -8.26057,-3.57622 -5.94359,0 -9.06649,4.33176 -3.1229,4.2814 -3.1229,12.44124 6.9006,0.30222 10.37609,0.40295 3.47549,0.0504 6.44728,0.0504 2.66958,0 3.97918,0 1.35997,-0.0504 2.51847,-0.1511 z"
         style="text-align:center;text-anchor:middle;stroke-width:2.57891202"
         id="path905" />
      <path
         d="m 352.71449,463.78035 q -0.40295,2.87105 -0.55406,4.73472 -0.15111,1.86367 -0.15111,3.32438 0,1.10813 0.15111,3.42512 0,0.30221 0.0504,0.50369 h -2.16588 v -1.15849 q 0,-4.53325 -3.32438,-7.05172 -3.32438,-2.51847 -9.16723,-2.51847 -4.38213,0 -7.15245,2.16589 -2.77032,2.11551 -2.77032,5.43989 0,3.32438 2.317,5.18805 2.31699,1.86366 8.96575,3.37474 11.28274,2.51847 14.45601,5.23842 3.17327,2.66958 3.17327,7.75688 0,7.75689 -5.69174,12.69309 -5.69174,4.88583 -14.85897,4.88583 -3.97918,0 -7.75688,-0.5037 -3.77771,-0.50369 -7.60578,-1.46071 0.55406,-1.91404 0.90665,-5.23841 0.35259,-3.37475 0.35259,-7.35393 v -1.86367 h 2.41773 q 0,0.35259 -0.0504,0.80591 0,0.45332 0,1.35997 0,5.33916 3.32438,8.00873 3.37474,2.61921 10.17461,2.61921 5.08731,0 8.31095,-2.61921 3.22364,-2.66957 3.22364,-6.64875 0,-3.37475 -2.4681,-5.28879 -2.41773,-1.91404 -11.73607,-4.13029 -7.50503,-1.71256 -10.72868,-4.73472 -3.22364,-3.02216 -3.22364,-8.26058 0,-6.79986 4.9362,-10.87978 4.98657,-4.07992 13.44863,-4.07992 3.62659,0 6.9006,0.60443 3.32438,0.55406 6.29617,1.66219 z"
         style="text-align:center;text-anchor:middle;stroke-width:2.57891202"
         id="path907" />
      <path
         d="m 396.43514,463.78035 q -0.40296,2.87105 -0.55407,4.73472 -0.1511,1.86367 -0.1511,3.32438 0,1.10813 0.1511,3.42512 0,0.30221 0.0504,0.50369 h -2.16588 v -1.15849 q 0,-4.53325 -3.32438,-7.05172 -3.32438,-2.51847 -9.16723,-2.51847 -4.38213,0 -7.15245,2.16589 -2.77031,2.11551 -2.77031,5.43989 0,3.32438 2.31699,5.18805 2.31699,1.86366 8.96575,3.37474 11.28274,2.51847 14.45601,5.23842 3.17327,2.66958 3.17327,7.75688 0,7.75689 -5.69174,12.69309 -5.69174,4.88583 -14.85897,4.88583 -3.97918,0 -7.75688,-0.5037 -3.7777,-0.50369 -7.60578,-1.46071 0.55407,-1.91404 0.90665,-5.23841 0.35259,-3.37475 0.35259,-7.35393 v -1.86367 h 2.41773 q 0,0.35259 -0.0504,0.80591 0,0.45332 0,1.35997 0,5.33916 3.32438,8.00873 3.37475,2.61921 10.17461,2.61921 5.08731,0 8.31095,-2.61921 3.22364,-2.66957 3.22364,-6.64875 0,-3.37475 -2.4681,-5.28879 -2.41773,-1.91404 -11.73607,-4.13029 -7.50503,-1.71256 -10.72867,-4.73472 -3.22364,-3.02216 -3.22364,-8.26058 0,-6.79986 4.9362,-10.87978 4.98656,-4.07992 13.44862,-4.07992 3.6266,0 6.9006,0.60443 3.32438,0.55406 6.29618,1.66219 z"
         style="text-align:center;text-anchor:middle;stroke-width:2.57891202"
         id="path909" />
      <path
         d="m 431.69369,464.73737 q -7.15245,0 -10.98052,4.78509 -3.7777,4.73472 -3.7777,13.6501 0,11.58496 4.33176,18.38482 4.33177,6.79987 11.6857,6.79987 6.85023,0 10.42646,-4.83546 3.57622,-4.83546 3.57622,-14.25454 0,-11.33311 -4.13028,-17.93149 -4.13029,-6.59839 -11.13164,-6.59839 z m -24.12693,22.06179 q 0,-11.63533 6.90061,-18.53594 6.9006,-6.95097 18.5863,-6.95097 10.6783,0 16.97448,6.49765 6.29617,6.44728 6.29617,17.4278 0,11.88718 -7.15245,19.34185 -7.15245,7.40429 -18.38483,7.40429 -10.82941,0 -17.02485,-6.74949 -6.19543,-6.7495 -6.19543,-18.43519 z"
         style="text-align:center;text-anchor:middle;stroke-width:2.57891202"
         id="path911" />
      <path
         d="m 499.74272,462.8737 q -0.55407,2.87106 -0.85628,6.04433 -0.25185,3.1229 -0.25185,6.74949 l -2.06515,-0.10074 q -1.41034,-2.51847 -2.97179,-3.57622 -1.56145,-1.05776 -3.82807,-1.05776 -4.78509,0 -7.25319,3.27401 -2.4681,3.27401 -2.4681,9.72129 v 12.79382 0.5037 q 0,7.35393 1.3096,8.81464 1.35998,1.41034 6.54802,1.41034 0.0504,0 0.30222,0 1.00739,0.10074 1.86367,0.10074 l -0.0504,2.97179 q -2.21626,-0.15111 -5.08731,-0.20148 -2.82069,-0.10073 -8.91538,-0.10073 -6.34654,0 -9.11686,0.10073 -2.71995,0.0504 -4.78509,0.20148 v -2.97179 h 1.20887 q 5.23841,0 6.59838,-1.3096 1.35998,-1.30961 1.35998,-6.7495 v -3.02216 -17.9315 q 0,-7.25319 -1.20887,-8.51243 -1.15849,-1.25923 -6.19543,-1.25923 h -1.56145 l -0.10074,-2.82069 q 4.63398,-0.40295 8.61316,-1.41034 4.02955,-1.05776 7.35393,-2.71995 l 1.56145,0.30222 v 11.182 l 3.72734,-4.02955 0.6548,-0.75554 q 5.99395,-6.69913 10.47683,-6.69913 1.10813,0 2.41773,0.30222 1.3096,0.25185 2.71995,0.75554 z"
         style="text-align:center;text-anchor:middle;stroke-width:2.57891202"
         id="path913" />
      <path
         d="m 519.08456,461.51373 1.35997,0.40295 v 37.77704 q 0,5.13767 1.25923,6.44728 1.30961,1.3096 7.60578,1.41034 v 2.97179 q -2.36736,-0.15111 -5.69174,-0.20148 -3.32438,-0.10073 -7.60578,-0.10073 -6.34654,0 -8.91538,0.10073 -2.56884,0.0504 -4.38213,0.20148 v -2.97179 q 5.74211,-0.10074 7.20282,-1.25924 1.46071,-1.15849 1.46071,-5.03693 v -24.88248 q 0,-5.38952 -1.25923,-6.49765 -1.20887,-1.15849 -7.4043,-1.25923 v -2.97179 q 5.74211,-0.85628 9.51981,-1.8133 3.7777,-0.95702 6.85024,-2.31699 z m -3.97919,-22.26327 q 2.41773,0 4.13029,1.71256 1.71256,1.66219 1.71256,4.07992 0,2.31699 -1.71256,3.97918 -1.71256,1.66219 -4.13029,1.66219 -2.51846,0 -4.23102,-1.61182 -1.66219,-1.66219 -1.66219,-4.02955 0,-2.41773 1.71256,-4.07992 1.71255,-1.71256 4.18065,-1.71256 z"
         style="text-align:center;text-anchor:middle;stroke-width:2.57891202"
         id="path915" />
      <path
         d="m 564.41699,483.47478 q -12.03828,1.61182 -16.77301,4.63398 -4.68435,2.97179 -4.68435,8.81464 0,4.07992 2.16589,6.29617 2.16588,2.16589 6.29617,2.16589 3.42512,0 6.44728,-1.86367 3.02216,-1.86367 6.54802,-6.19543 z m 8.46205,-4.23103 v 19.54332 1.81329 q 0,4.73473 0.85628,5.69174 0.90665,0.95702 6.04433,1.1585 l -0.0504,3.07253 q -1.86367,-0.15111 -3.82807,-0.20148 -1.91404,-0.10073 -3.87845,-0.10073 -1.51108,0 -3.42511,0.10073 -1.91404,0.0504 -3.97918,0.20148 v -8.56279 l -9.41908,6.9006 q -1.76293,1.30961 -4.13029,2.06515 -2.36736,0.75554 -4.73472,0.75554 -5.54063,0 -8.66353,-3.37475 -3.07253,-3.37475 -3.07253,-9.41907 0,-8.31095 6.79986,-12.54198 6.85024,-4.2814 23.01881,-5.94359 v -1.56145 q 0,-5.89321 -3.37475,-9.01612 -3.32438,-3.1229 -9.62055,-3.1229 -4.78509,0 -7.00135,1.86367 -2.21625,1.86367 -3.1229,6.90061 l -2.87105,-0.65481 0.30221,-6.9006 0.30222,-0.15111 q 10.22498,-6.44728 16.6219,-6.44728 9.11685,0 13.1464,4.13029 4.07992,4.13029 4.07992,13.80121 z"
         style="text-align:center;text-anchor:middle;stroke-width:2.57891202"
         id="path917" />
      <path
         d="m 651.65676,473.50164 q -2.317,-3.27401 -6.64876,-5.43989 -4.2814,-2.21626 -8.41169,-2.21626 -6.54802,0 -10.72868,5.28879 -4.13028,5.28878 -4.13028,13.90195 0,8.36131 4.48287,14.00268 4.53324,5.59101 10.98052,5.59101 6.95098,0 10.67831,-3.87845 3.77771,-3.87844 3.77771,-10.98052 z m 7.95836,-38.48221 1.00739,0.60444 v 64.77502 0.10074 q 0,4.38213 1.20886,5.43989 1.20887,1.00739 7.35393,1.61182 v 2.97179 q -1.91404,-0.15111 -3.97918,-0.20148 -2.01478,-0.10073 -5.28879,-0.10073 -2.31699,0 -4.23102,0.10073 -1.91404,0.0504 -3.87845,0.20148 l -0.0504,-8.96575 -8.46206,7.00135 q -2.06514,1.76292 -4.38214,2.36736 -2.26662,0.60443 -5.79247,0.60443 -8.76428,0 -14.35528,-6.39691 -5.591,-6.44728 -5.591,-16.67227 0,-6.59838 2.01478,-11.33311 2.06514,-4.78509 6.2458,-7.95836 4.73472,-3.67696 9.41907,-5.64137 4.68436,-2.01477 8.51243,-2.01477 3.1229,0 6.29617,0.80591 3.22364,0.75554 5.99396,2.21625 v -18.38482 q 0,-3.32438 -1.10813,-3.87845 -1.05776,-0.60443 -7.10208,-0.85627 l -0.0504,-2.92143 q 5.03694,-0.55406 8.91538,-1.41034 3.87844,-0.85628 7.30356,-2.06515 z"
         style="text-align:center;text-anchor:middle;stroke-width:2.57891202"
         id="path919" />
      <path
         d="m 703.08387,485.7414 h -18.48556 v 0.35258 q 0,9.62056 4.58361,14.95971 4.58361,5.33915 12.84419,5.33915 3.67697,0 6.90061,-1.05775 3.27401,-1.10813 5.89321,-3.17327 l 1.00739,0.60443 q -0.45332,0.6548 -0.90665,1.56145 -0.40295,0.90665 -0.80591,2.06514 -3.42511,2.77032 -7.50503,4.13029 -4.02955,1.35998 -8.81465,1.35998 -11.03089,0 -16.87374,-6.29618 -5.79248,-6.34654 -5.79248,-18.28408 0,-6.39691 1.71256,-11.23237 1.76293,-4.88583 5.08731,-7.75689 4.07992,-3.47548 8.21021,-5.23841 4.18066,-1.76293 8.21021,-1.76293 8.36131,0 13.59973,5.18805 5.23841,5.18804 5.23841,13.29751 0,2.16588 -4.02955,4.07992 -3.97918,1.86367 -10.07387,1.86367 z m 4.73472,-3.82807 v -3.17328 q 0,-6.79986 -2.87105,-10.32572 -2.82069,-3.57622 -8.26058,-3.57622 -5.94359,0 -9.06649,4.33176 -3.1229,4.2814 -3.1229,12.44124 6.9006,0.30222 10.37609,0.40295 3.47549,0.0504 6.44728,0.0504 2.66958,0 3.97918,0 1.35997,-0.0504 2.51847,-0.1511 z"
         style="text-align:center;text-anchor:middle;stroke-width:2.57891202"
         id="path921" />
      <path
         d="m 748.21484,438.44455 q 2.16589,0.15111 4.68435,0.25185 2.51847,0.0504 7.70652,0.0504 3.97918,0 7.60578,-0.0504 3.62659,-0.10074 6.79986,-0.25185 v 3.57623 q -0.90665,0 -1.86367,-0.0504 -0.90664,-0.0504 -0.90664,-0.0504 -2.87106,0 -4.13029,0.70517 -1.20887,0.6548 -1.20887,2.16588 0,1.20887 0.70517,3.77771 0.70517,2.56884 1.96441,5.74211 l 16.82337,43.01545 16.37005,-40.95031 q 1.61182,-3.87844 2.4681,-6.59839 0.85628,-2.71994 0.85628,-3.82807 0,-2.06515 -1.35998,-2.82069 -1.3096,-0.80591 -7.30355,-1.20886 v -3.47549 q 2.36736,0.15111 4.73472,0.25185 2.41773,0.0504 4.9362,0.0504 2.56883,0 5.64137,-0.0504 3.07253,-0.10074 6.64875,-0.25185 v 3.47549 q -0.50369,0 -1.00738,0.0504 -0.45333,0.0504 -0.55407,0.0504 -4.07992,0 -7.75688,9.21759 -0.50369,1.30961 -0.80591,2.01478 l -17.42781,42.71323 q -2.26662,5.54063 -3.87844,9.82203 -1.56145,4.23103 -1.8133,5.33915 h -4.93619 q -0.35259,-1.71255 -1.51109,-4.83546 -1.10812,-3.17327 -3.62659,-9.46944 l -18.68704,-47.44795 q -0.10074,-0.30222 -0.25185,-0.70517 -2.66957,-6.85024 -8.10947,-6.85024 h -0.80591 z"
         style="text-align:center;text-anchor:middle;stroke-width:2.57891202"
         id="path923" />
      <path
         d="m 839.4842,485.7414 h -18.48556 v 0.35258 q 0,9.62056 4.58361,14.95971 4.58361,5.33915 12.84419,5.33915 3.67697,0 6.90061,-1.05775 3.27401,-1.10813 5.89321,-3.17327 l 1.00739,0.60443 q -0.45332,0.6548 -0.90665,1.56145 -0.40295,0.90665 -0.80591,2.06514 -3.42512,2.77032 -7.50503,4.13029 -4.02956,1.35998 -8.81465,1.35998 -11.03089,0 -16.87374,-6.29618 -5.79248,-6.34654 -5.79248,-18.28408 0,-6.39691 1.71256,-11.23237 1.76293,-4.88583 5.08731,-7.75689 4.07992,-3.47548 8.21021,-5.23841 4.18066,-1.76293 8.21021,-1.76293 8.36131,0 13.59973,5.18805 5.23841,5.18804 5.23841,13.29751 0,2.16588 -4.02955,4.07992 -3.97918,1.86367 -10.07387,1.86367 z m 4.73472,-3.82807 v -3.17328 q 0,-6.79986 -2.87105,-10.32572 -2.82069,-3.57622 -8.26058,-3.57622 -5.94359,0 -9.06649,4.33176 -3.1229,4.2814 -3.1229,12.44124 6.9006,0.30222 10.37609,0.40295 3.47549,0.0504 6.44728,0.0504 2.66958,0 3.97918,0 1.35997,-0.0504 2.51847,-0.1511 z"
         style="text-align:center;text-anchor:middle;stroke-width:2.57891202"
         id="path925" />
      <path
         d="m 874.69234,461.61447 1.35998,0.40295 -0.10074,8.66353 5.74211,-5.23841 q 2.26662,-2.01478 4.58361,-2.87106 2.31699,-0.85628 5.94359,-0.85628 8.10947,0 11.93754,4.73473 3.87844,4.73472 3.87844,14.75822 v 18.68704 q 0,5.28879 1.25923,6.34655 1.30961,1.05775 5.94359,1.20886 v 3.07253 q -2.11551,-0.15111 -4.33177,-0.20148 -2.16588,-0.10073 -4.33176,-0.10073 -1.96441,0 -4.02955,0.10073 -2.06515,0.0504 -4.07992,0.20148 0.20148,-3.22364 0.30221,-5.94358 0.15111,-2.71995 0.15111,-4.2814 v -19.19073 q 0,-6.49765 -2.77031,-9.77166 -2.77032,-3.32438 -8.26058,-3.32438 -5.23842,0 -8.46206,3.1229 -3.17327,3.1229 -3.17327,8.46205 v 20.70182 0.95702 q 0,4.4325 1.05776,5.28878 1.10813,0.80591 6.44728,0.90665 v 3.07253 q -5.94359,-0.30221 -8.51243,-0.40295 -2.51846,-0.10074 -4.02955,-0.10074 -2.71994,0 -5.64137,0.15111 -2.87105,0.10074 -5.99395,0.35258 l -0.0504,-3.07253 h 0.0504 q 7.45467,-0.15111 7.50504,-5.28878 v -1.96441 -25.88986 q 0,-3.87844 -0.70518,-4.88583 -0.6548,-1.00739 -3.02216,-1.00739 -1.15849,0 -2.51847,0.15111 -1.3096,0.10074 -1.51108,0.10074 v -2.92142 q 4.02955,-0.65481 7.85762,-1.66219 3.87845,-1.05776 7.50504,-2.4681 z"
         style="text-align:center;text-anchor:middle;stroke-width:2.57891202"
         id="path927" />
      <path
         d="m 960.52181,473.50164 q -2.31699,-3.27401 -6.64876,-5.43989 -4.2814,-2.21626 -8.41169,-2.21626 -6.54802,0 -10.72867,5.28879 -4.13029,5.28878 -4.13029,13.90195 0,8.36131 4.48287,14.00268 4.53325,5.59101 10.98053,5.59101 6.95097,0 10.6783,-3.87845 3.77771,-3.87844 3.77771,-10.98052 z m 7.95836,-38.48221 1.00739,0.60444 v 64.77502 0.10074 q 0,4.38213 1.20886,5.43989 1.20887,1.00739 7.35393,1.61182 v 2.97179 q -1.91404,-0.15111 -3.97918,-0.20148 -2.01477,-0.10073 -5.28878,-0.10073 -2.317,0 -4.23103,0.10073 -1.91404,0.0504 -3.87844,0.20148 l -0.0504,-8.96575 -8.46206,7.00135 q -2.06514,1.76292 -4.38214,2.36736 -2.26662,0.60443 -5.79247,0.60443 -8.76428,0 -14.35528,-6.39691 -5.591,-6.44728 -5.591,-16.67227 0,-6.59838 2.01478,-11.33311 2.06514,-4.78509 6.2458,-7.95836 4.73472,-3.67696 9.41907,-5.64137 4.68436,-2.01477 8.51243,-2.01477 3.1229,0 6.29617,0.80591 3.22364,0.75554 5.99396,2.21625 v -18.38482 q 0,-3.32438 -1.10813,-3.87845 -1.05776,-0.60443 -7.10208,-0.85627 l -0.0504,-2.92143 q 5.03694,-0.55406 8.91538,-1.41034 3.87844,-0.85628 7.30356,-2.06515 z"
         style="text-align:center;text-anchor:middle;stroke-width:2.57891202"
         id="path929" />
      <path
         d="m 1013.7118,483.47478 q -12.0382,1.61182 -16.77295,4.63398 -4.68436,2.97179 -4.68436,8.81464 0,4.07992 2.16589,6.29617 2.16588,2.16589 6.29612,2.16589 3.4252,0 6.4473,-1.86367 3.0222,-1.86367 6.548,-6.19543 z m 8.4621,-4.23103 v 19.54332 1.81329 q 0,4.73473 0.8563,5.69174 0.9066,0.95702 6.0443,1.1585 l -0.05,3.07253 q -1.8636,-0.15111 -3.828,-0.20148 -1.9141,-0.10073 -3.8785,-0.10073 -1.5111,0 -3.4251,0.10073 -1.914,0.0504 -3.9792,0.20148 v -8.56279 l -9.419,6.9006 q -1.763,1.30961 -4.1303,2.06515 -2.3674,0.75554 -4.73476,0.75554 -5.54063,0 -8.66353,-3.37475 -3.07253,-3.37475 -3.07253,-9.41907 0,-8.31095 6.79986,-12.54198 6.85024,-4.2814 23.01876,-5.94359 v -1.56145 q 0,-5.89321 -3.3747,-9.01612 -3.3244,-3.1229 -9.6206,-3.1229 -4.78504,0 -7.00129,1.86367 -2.21626,1.86367 -3.12291,6.90061 l -2.87105,-0.65481 0.30222,-6.9006 0.30221,-0.15111 q 10.22499,-6.44728 16.62192,-6.44728 9.1168,0 13.1464,4.13029 4.0799,4.13029 4.0799,13.80121 z"
         style="text-align:center;text-anchor:middle;stroke-width:2.57891202"
         id="path931" />
      <path
         d="m 1068.1612,463.78035 q -0.403,2.87105 -0.5541,4.73472 -0.1511,1.86367 -0.1511,3.32438 0,1.10813 0.1511,3.42512 0,0.30221 0.05,0.50369 h -2.1659 v -1.15849 q 0,-4.53325 -3.3244,-7.05172 -3.3244,-2.51847 -9.1672,-2.51847 -4.3822,0 -7.1525,2.16589 -2.7703,2.11551 -2.7703,5.43989 0,3.32438 2.317,5.18805 2.317,1.86366 8.9657,3.37474 11.2828,2.51847 14.4561,5.23842 3.1732,2.66958 3.1732,7.75688 0,7.75689 -5.6917,12.69309 -5.6918,4.88583 -14.859,4.88583 -3.9792,0 -7.7569,-0.5037 -3.7777,-0.50369 -7.6057,-1.46071 0.554,-1.91404 0.9066,-5.23841 0.3526,-3.37475 0.3526,-7.35393 v -1.86367 h 2.4177 q 0,0.35259 -0.05,0.80591 0,0.45332 0,1.35997 0,5.33916 3.3243,8.00873 3.3748,2.61921 10.1746,2.61921 5.0874,0 8.311,-2.61921 3.2236,-2.66957 3.2236,-6.64875 0,-3.37475 -2.4681,-5.28879 -2.4177,-1.91404 -11.736,-4.13029 -7.5051,-1.71256 -10.7287,-4.73472 -3.2236,-3.02216 -3.2236,-8.26058 0,-6.79986 4.9361,-10.87978 4.9866,-4.07992 13.4487,-4.07992 3.6266,0 6.9006,0.60443 3.3244,0.55406 6.2962,1.66219 z"
         style="text-align:center;text-anchor:middle;stroke-width:2.57891202"
         id="path933" />
      <path
         d="m 363.49355,614.68701 h -18.48556 v 0.35258 q 0,9.62055 4.58361,14.95971 4.58362,5.33915 12.84419,5.33915 3.67697,0 6.90061,-1.05776 3.27401,-1.10812 5.89322,-3.17327 l 1.00738,0.60444 q -0.45332,0.6548 -0.90665,1.56145 -0.40295,0.90665 -0.80591,2.06514 -3.42511,2.77032 -7.50503,4.13029 -4.02955,1.35997 -8.81464,1.35997 -11.0309,0 -16.87375,-6.29617 -5.79247,-6.34654 -5.79247,-18.28408 0,-6.39691 1.71255,-11.23237 1.76293,-4.88583 5.08731,-7.75689 4.07992,-3.47549 8.21021,-5.23841 4.18066,-1.76293 8.21021,-1.76293 8.36132,0 13.59973,5.18804 5.23842,5.18805 5.23842,13.29752 0,2.16588 -4.02955,4.07992 -3.97918,1.86367 -10.07388,1.86367 z m 4.73472,-3.82808 v -3.17327 q 0,-6.79986 -2.87105,-10.32572 -2.82069,-3.57623 -8.26058,-3.57623 -5.94359,0 -9.06649,4.33177 -3.1229,4.2814 -3.1229,12.44124 6.90061,0.30221 10.37609,0.40295 3.47549,0.0504 6.44728,0.0504 2.66958,0 3.97918,0 1.35998,-0.0504 2.51847,-0.15111 z"
         style="text-align:center;text-anchor:middle;stroke-width:2.57891202"
         id="path935" />
      <path
         d="m 475.96838,570.16048 q -1.10813,3.67696 -1.76293,7.60577 -0.6548,3.92881 -0.80591,8.0591 h -2.56884 q -0.30222,-2.92142 -0.50369,-7.90799 0,-0.30222 0,-0.45332 -4.43251,-3.52586 -9.8724,-5.38953 -5.4399,-1.91403 -10.98053,-1.91403 -12.94493,0 -20.3996,8.00873 -7.45466,8.00873 -7.45466,21.91068 0,15.86635 9.06648,25.58764 9.11686,9.67092 23.92546,9.67092 5.84285,0 11.13163,-1.41034 5.28879,-1.46071 9.41908,-4.18066 l 1.00738,0.55406 -2.87105,5.33916 q -4.78509,2.66957 -10.47683,3.97918 -5.69174,1.3096 -12.54198,1.3096 -17.47817,0 -28.35796,-10.37609 -10.82941,-10.42646 -10.82941,-27.40094 0,-17.17596 10.98052,-27.19947 11.03089,-10.0235 29.7683,-10.0235 6.54802,0 12.49161,1.05776 5.99396,1.00738 11.63533,3.17327 z"
         style="text-align:center;text-anchor:middle;stroke-width:2.57891202"
         id="path937" />
      <path
         d="m 507.95292,593.68298 q -7.15245,0 -10.98052,4.78509 -3.7777,4.73472 -3.7777,13.6501 0,11.58496 4.33176,18.38482 4.33177,6.79987 11.6857,6.79987 6.85023,0 10.42646,-4.83546 3.57622,-4.83546 3.57622,-14.25454 0,-11.33311 -4.13028,-17.9315 -4.13029,-6.59838 -11.13164,-6.59838 z m -24.12693,22.06178 q 0,-11.63532 6.90061,-18.53593 6.9006,-6.95097 18.5863,-6.95097 10.6783,0 16.97448,6.49765 6.29617,6.44728 6.29617,17.4278 0,11.88718 -7.15245,19.34184 -7.15245,7.4043 -18.38483,7.4043 -10.82941,0 -17.02485,-6.74949 -6.19543,-6.7495 -6.19543,-18.4352 z"
         style="text-align:center;text-anchor:middle;stroke-width:2.57891202"
         id="path939" />
      <path
         d="m 552.07651,629.14302 q 3.07253,2.92142 6.29617,4.33176 3.22364,1.35998 6.9006,1.35998 7.20282,0 11.38348,-5.23842 4.23103,-5.28878 4.23103,-14.25453 0,-8.41169 -3.97918,-13.29752 -3.92881,-4.88583 -10.67831,-4.88583 -5.49026,0 -9.82203,3.6266 -4.33176,3.57622 -4.33176,6.59839 z m -0.60444,-65.17798 1.00739,0.60444 q -0.15111,4.93619 -0.30221,8.81464 -0.10074,3.87844 -0.10074,5.13767 v 22.16253 l 5.69174,-5.23842 q 2.82068,-2.6192 5.79247,-3.67696 3.02217,-1.10813 7.4043,-1.10813 8.41169,0 13.499,5.69174 5.0873,5.64137 5.0873,15.06045 0,6.95097 -2.71994,12.23976 -2.66958,5.28878 -8.5628,9.72129 -5.74211,4.4325 -9.26796,5.84284 -3.52586,1.41035 -7.95836,1.41035 -3.6266,0 -7.05172,-1.05776 -3.42511,-1.05776 -5.591,-2.87106 l -4.13029,3.37475 -1.66219,-0.30221 q 0.35259,-2.16589 0.5037,-4.2814 0.20147,-2.11551 0.20147,-5.28879 v -51.57824 q 0,-5.74211 -1.15849,-6.85023 -1.1585,-1.10813 -5.84285,-1.10813 h -1.35997 v -2.87105 q 4.53324,-0.5037 8.61316,-1.41035 4.07992,-0.95702 7.90799,-2.41773 z"
         style="text-align:center;text-anchor:middle;stroke-width:2.57891202"
         id="path941" />
      <path
         d="m 633.0201,591.81931 q -0.55406,2.87105 -0.85628,6.04432 -0.25184,3.12291 -0.25184,6.7495 l -2.06515,-0.10074 q -1.41034,-2.51847 -2.97179,-3.57622 -1.56145,-1.05776 -3.82807,-1.05776 -4.78509,0 -7.25319,3.27401 -2.4681,3.27401 -2.4681,9.72129 v 12.79382 0.50369 q 0,7.35393 1.3096,8.81465 1.35997,1.41034 6.54802,1.41034 0.0504,0 0.30222,0 1.00738,0.10074 1.86366,0.10074 l -0.0504,2.97179 q -2.21625,-0.15111 -5.0873,-0.20148 -2.82069,-0.10074 -8.91538,-0.10074 -6.34654,0 -9.11686,0.10074 -2.71995,0.0504 -4.78509,0.20148 v -2.97179 h 1.20886 q 5.23842,0 6.59839,-1.30961 1.35998,-1.3096 1.35998,-6.74949 v -3.02217 -17.93149 q 0,-7.2532 -1.20887,-8.51243 -1.1585,-1.25923 -6.19543,-1.25923 h -1.56145 l -0.10074,-2.82069 q 4.63398,-0.40295 8.61316,-1.41034 4.02955,-1.05776 7.35393,-2.71995 l 1.56145,0.30222 v 11.182 l 3.72733,-4.02955 0.65481,-0.75554 q 5.99395,-6.69913 10.47683,-6.69913 1.10812,0 2.41773,0.30222 1.3096,0.25184 2.71994,0.75554 z"
         style="text-align:center;text-anchor:middle;stroke-width:2.57891202"
         id="path943" />
      <path
         d="m 667.67423,612.42038 q -12.03828,1.61182 -16.773,4.63399 -4.68435,2.97179 -4.68435,8.81464 0,4.07992 2.16588,6.29617 2.16589,2.16588 6.29617,2.16588 3.42512,0 6.44729,-1.86366 3.02216,-1.86367 6.54801,-6.19544 z m 8.46206,-4.23102 v 19.54332 1.81329 q 0,4.73472 0.85628,5.69174 0.90665,0.95702 6.04432,1.1585 l -0.0504,3.07253 q -1.86367,-0.15111 -3.82808,-0.20148 -1.91403,-0.10074 -3.87844,-0.10074 -1.51108,0 -3.42512,0.10074 -1.91403,0.0504 -3.97918,0.20148 v -8.56279 l -9.41907,6.9006 q -1.76293,1.3096 -4.13029,2.06515 -2.36736,0.75554 -4.73472,0.75554 -5.54063,0 -8.66354,-3.37475 -3.07253,-3.37475 -3.07253,-9.41908 0,-8.31094 6.79987,-12.54197 6.85023,-4.2814 23.0188,-5.94359 v -1.56145 q 0,-5.89322 -3.37474,-9.01612 -3.32438,-3.1229 -9.62056,-3.1229 -4.78509,0 -7.00134,1.86367 -2.21625,1.86367 -3.1229,6.9006 l -2.87105,-0.6548 0.30221,-6.9006 0.30222,-0.15111 q 10.22498,-6.44728 16.62189,-6.44728 9.11686,0 13.14641,4.13029 4.07992,4.13029 4.07992,13.80121 z"
         style="text-align:center;text-anchor:middle;stroke-width:2.57891202"
         id="path945" />
      <path
         d="m 703.33576,590.56007 1.35997,0.40296 -0.10074,8.66353 5.74211,-5.23841 q 2.26662,-2.01478 4.58361,-2.87106 2.317,-0.85628 5.94359,-0.85628 8.10947,0 11.93754,4.73472 3.87845,4.73473 3.87845,14.75823 v 18.68704 q 0,5.28879 1.25923,6.34654 1.3096,1.05776 5.94359,1.20887 v 3.07253 q -2.11552,-0.15111 -4.33177,-0.20148 -2.16588,-0.10074 -4.33177,-0.10074 -1.9644,0 -4.02955,0.10074 -2.06514,0.0504 -4.07992,0.20148 0.20148,-3.22364 0.30222,-5.94359 0.15111,-2.71994 0.15111,-4.28139 v -19.19074 q 0,-6.49765 -2.77032,-9.77166 -2.77031,-3.32437 -8.26057,-3.32437 -5.23842,0 -8.46206,3.1229 -3.17327,3.1229 -3.17327,8.46205 v 20.70182 0.95701 q 0,4.43251 1.05776,5.28879 1.10812,0.80591 6.44728,0.90665 v 3.07253 q -5.94359,-0.30222 -8.51243,-0.40295 -2.51847,-0.10074 -4.02955,-0.10074 -2.71995,0 -5.64137,0.1511 -2.87105,0.10074 -5.99396,0.35259 l -0.0504,-3.07253 h 0.0504 q 7.45467,-0.15111 7.50504,-5.28879 v -1.9644 -25.88986 q 0,-3.87844 -0.70517,-4.88583 -0.6548,-1.00739 -3.02216,-1.00739 -1.1585,0 -2.51847,0.15111 -1.3096,0.10074 -1.51108,0.10074 v -2.92143 q 4.02955,-0.6548 7.85762,-1.66219 3.87844,-1.05775 7.50504,-2.4681 z"
         style="text-align:center;text-anchor:middle;stroke-width:2.57891202"
         id="path947" />
      <path
         d="m 787.60371,606.27532 h -2.56884 l -0.40295,-2.92142 q 0,-0.0504 0,-0.25185 -0.35259,-3.47549 -1.46071,-4.38214 -1.71256,-1.46071 -4.78509,-2.36736 -3.02217,-0.90665 -6.34655,-0.90665 -6.79986,0 -10.37609,4.23103 -3.52585,4.18066 -3.52585,12.23976 0,10.77905 4.98656,17.12559 5.03694,6.29617 13.44863,6.29617 2.77031,0 5.74211,-0.75554 3.02216,-0.75554 6.04432,-2.21625 l 0.90665,0.70517 -2.26662,4.13029 q -3.27401,1.76293 -7.00134,2.61921 -3.67697,0.90664 -7.85763,0.90664 h -1.3096 v 4.38214 q 1.20886,-0.15111 2.01477,-0.20148 0.85628,-0.0504 1.46072,-0.10074 3.97918,0 6.34654,2.26663 2.41773,2.26662 2.41773,5.99395 0,4.13029 -2.92143,6.44728 -2.87105,2.31699 -8.10947,2.31699 -2.6192,0 -5.23841,-0.50369 -2.56884,-0.50369 -5.28879,-1.56145 l -0.60443,-3.7777 q 2.61921,1.00738 4.88583,1.46071 2.26662,0.50369 4.38214,0.50369 3.1229,0 4.63398,-1.20886 1.56145,-1.1585 1.56145,-3.57623 0,-2.06514 -1.51108,-3.32438 -1.46071,-1.20886 -4.02955,-1.20886 -0.45333,0 -1.25924,0.0504 -0.75554,0.10074 -1.9644,0.25184 v -8.56279 q -8.76427,-1.1585 -13.54936,-7.25319 -4.78509,-6.14507 -4.78509,-16.26931 0,-6.69913 1.9644,-11.63533 1.96441,-4.9362 5.64137,-7.50503 5.74211,-3.97918 10.27535,-5.69174 4.58362,-1.76293 9.31834,-1.76293 3.52586,0 6.64876,0.70517 3.17327,0.70517 5.94358,2.11551 -0.45332,2.71995 -0.80591,5.89322 -0.35258,3.17327 -0.6548,7.30356 z"
         style="text-align:center;text-anchor:middle;stroke-width:2.57891202"
         id="path949" />
      <path
         d="m 825.02815,612.42038 q -12.03828,1.61182 -16.77301,4.63399 -4.68435,2.97179 -4.68435,8.81464 0,4.07992 2.16588,6.29617 2.16589,2.16588 6.29618,2.16588 3.42511,0 6.44728,-1.86366 3.02216,-1.86367 6.54802,-6.19544 z m 8.46205,-4.23102 v 19.54332 1.81329 q 0,4.73472 0.85628,5.69174 0.90665,0.95702 6.04433,1.1585 l -0.0504,3.07253 q -1.86367,-0.15111 -3.82808,-0.20148 -1.91403,-0.10074 -3.87844,-0.10074 -1.51108,0 -3.42511,0.10074 -1.91404,0.0504 -3.97919,0.20148 v -8.56279 l -9.41907,6.9006 q -1.76293,1.3096 -4.13029,2.06515 -2.36736,0.75554 -4.73472,0.75554 -5.54063,0 -8.66353,-3.37475 -3.07254,-3.37475 -3.07254,-9.41908 0,-8.31094 6.79987,-12.54197 6.85024,-4.2814 23.01881,-5.94359 v -1.56145 q 0,-5.89322 -3.37475,-9.01612 -3.32438,-3.1229 -9.62055,-3.1229 -4.78509,0 -7.00135,1.86367 -2.21625,1.86367 -3.1229,6.9006 l -2.87105,-0.6548 0.30221,-6.9006 0.30222,-0.15111 q 10.22498,-6.44728 16.62189,-6.44728 9.11686,0 13.14641,4.13029 4.07992,4.13029 4.07992,13.80121 z"
         style="text-align:center;text-anchor:middle;stroke-width:2.57891202"
         id="path951" />
    </g>
  </g>
</svg>
